<svg width="16" height="32" viewBox="0 0 16 32" fill="none" xmlns="http://www.w3.org/2000/svg">
<path d="M6.85107 30.4683C6.85107 31.0205 7.29879 31.4683 7.85107 31.4683C8.40336 31.4683 8.85107 31.0205 8.85107 30.4683H6.85107ZM8.55818 0.824982C8.16766 0.434458 7.53449 0.434458 7.14397 0.824982L0.780006 7.18894C0.389482 7.57947 0.389482 8.21263 0.780006 8.60316C1.17053 8.99368 1.8037 8.99368 2.19422 8.60316L7.85107 2.9463L13.5079 8.60316C13.8985 8.99368 14.5316 8.99368 14.9221 8.60316C15.3127 8.21263 15.3127 7.57947 14.9221 7.18894L8.55818 0.824982ZM8.85107 30.4683L8.85107 1.53209H6.85107L6.85107 30.4683H8.85107Z" fill="#FF7F00"/>
</svg>
