<svg width="50" height="50" viewBox="0 0 50 50" fill="none" xmlns="http://www.w3.org/2000/svg">
<path d="M24.9326 0H25.1709C25.5313 0.0878906 25.792 0.364258 26.0742 0.584961C29.5108 3.37207 32.1563 7.12988 33.585 11.3213C34.3955 13.6523 34.8008 16.1055 34.9756 18.5615C35.4063 24.9629 33.4981 31.377 30.1895 36.8232C29.9522 37.293 29.3731 37.2871 28.9346 37.4287C26.4629 38.1328 23.7998 38.1592 21.3203 37.4775C20.8155 37.3047 20.1309 37.3281 19.8662 36.7734C18.2383 34.1016 16.96 31.2139 16.127 28.1973C15.0674 24.4453 14.7686 20.4756 15.3067 16.6123C15.6455 13.8574 16.4121 11.1494 17.6397 8.65723C19.2608 5.3457 21.6582 2.41992 24.5791 0.171875C24.6866 0.0957031 24.8086 0.0439453 24.9326 0ZM19.335 8.87207C21.8116 10.6445 25.1211 11.1924 28.0244 10.252C28.3516 10.124 28.7578 10.0576 29.044 10.3145C29.4991 10.6562 29.4004 11.4531 28.8721 11.668C25.5069 12.8936 21.5889 12.3633 18.6319 10.3555C17.4541 13.0684 16.8819 16.0088 16.6953 18.9512C16.3467 24.8428 18.1133 30.7246 21.1289 35.751C22.6192 36.0928 24.1494 36.3154 25.6817 36.2275C26.7891 36.1582 27.8907 35.9922 28.9698 35.7373C31.8067 30.9473 33.541 25.4189 33.42 19.8213C33.3164 16.2363 32.6309 12.6211 31.0459 9.38379C29.6465 6.46777 27.5674 3.90137 25.0811 1.84082C22.71 3.75684 20.7471 6.17188 19.335 8.87207Z" fill="url(#paint0_linear_122_5)"/>
<path d="M24.5498 15.2901C25.7236 15.1445 26.9521 15.5117 27.8437 16.291C28.8027 17.1065 29.3701 18.3613 29.3359 19.6211C29.3203 20.8711 28.7148 22.0918 27.7402 22.8711C26.7715 23.6641 25.4414 23.9883 24.2168 23.7285C22.8896 23.4707 21.7227 22.5332 21.1709 21.3008C20.6533 20.1719 20.666 18.8154 21.207 17.6963C21.8174 16.3975 23.1211 15.4522 24.5498 15.2901ZM24.5322 16.9268C23.1895 17.1719 22.1982 18.5645 22.4268 19.9151C22.5937 21.3447 24.0742 22.4385 25.4912 22.166C26.8916 21.9736 27.9502 20.5264 27.6973 19.1328C27.5117 17.6738 25.9668 16.5938 24.5322 16.9268Z" fill="url(#paint1_linear_122_5)"/>
<path d="M35.9756 27.2754C36.3096 26.9805 36.8799 27.0537 37.1279 27.4229C39.459 30.7637 40.4346 35.0518 39.6465 39.0615C39.5938 39.3701 39.4434 39.6924 39.1582 39.8496C38.8096 39.9951 38.4248 39.8027 38.167 39.5654C36.7705 38.2295 35.376 36.8916 33.9766 35.5586C33.7705 35.3535 33.5068 35.1611 33.4492 34.8574C33.3555 34.4697 33.6006 34.043 33.9805 33.9229C34.2686 33.8193 34.5977 33.9131 34.8115 34.126C35.958 35.2148 37.0957 36.3135 38.2432 37.4023C38.4951 34.249 37.6445 31.0205 35.8555 28.4092C35.5899 28.0742 35.6309 27.54 35.9756 27.2754Z" fill="url(#paint2_linear_122_5)"/>
<path d="M12.2764 28.3897C12.5254 27.9483 13.2051 27.8868 13.5361 28.2667C13.8145 28.5479 13.8115 29.0079 13.5938 29.3233C12.1856 31.7511 11.5459 34.6114 11.7773 37.4083C13.1016 36.1495 14.416 34.879 15.7412 33.6212C16.0537 33.2999 16.6289 33.3292 16.9092 33.6788C17.1924 33.9962 17.1514 34.5245 16.832 34.8038C15.1729 36.3985 13.5068 37.9864 11.8438 39.5782C11.5596 39.8351 11.0811 40.0138 10.748 39.7452C10.4023 39.464 10.3545 38.9981 10.2842 38.589C9.67774 35.0938 10.4717 31.4229 12.2764 28.3897Z" fill="url(#paint3_linear_122_5)"/>
<path d="M19.5019 39.8916C19.6152 39.6006 19.8984 39.3809 20.2119 39.3604C20.5781 39.3301 20.9365 39.5918 21.0283 39.9454C21.1133 40.21 20.9932 40.4756 20.9111 40.7247C20.4951 41.8418 20.2988 43.0401 20.3437 44.2325C21.0801 43.9541 21.8281 43.6944 22.6006 43.5313C22.8584 43.4786 23.1504 43.4444 23.3818 43.5997C23.6211 43.7325 23.7217 43.9991 23.7939 44.2461C24.1387 45.4307 24.5176 46.6055 24.8789 47.7852C25.4424 46.6553 25.8506 45.4493 26.2178 44.2422C26.3193 43.9385 26.6279 43.7178 26.9492 43.7305C27.8389 43.7569 28.7246 43.9239 29.5664 44.2149C29.4297 43.1661 29.1992 42.1309 28.8984 41.1182C28.8145 40.8252 28.6885 40.543 28.6406 40.2403C28.5801 39.8604 28.8242 39.4502 29.2051 39.3565C29.6191 39.2237 30.0898 39.4981 30.1973 39.9151C30.6406 41.3252 31.0273 42.7637 31.1865 44.2364C31.2275 44.7959 31.2715 45.3848 31.0645 45.919C30.9463 46.2364 30.6035 46.4405 30.2676 46.3965C29.9404 46.3643 29.7227 46.086 29.4482 45.9366C28.8691 45.6124 28.2031 45.4971 27.5557 45.3965C27.1562 46.626 26.7236 47.8487 26.166 49.0176C25.9453 49.5127 25.46 49.8506 24.9512 50H24.6631C24.1523 49.8741 23.7324 49.462 23.5654 48.9678C23.1279 47.7403 22.7812 46.4844 22.4062 45.2374C21.5742 45.4708 20.7734 45.7989 19.9756 46.1299C19.5195 46.3418 18.9326 46.0108 18.874 45.5137C18.54 43.629 18.8047 41.6651 19.5019 39.8916Z" fill="url(#paint4_linear_122_5)"/>
<defs>
<linearGradient id="paint0_linear_122_5" x1="19.2974" y1="15.209" x2="27.7534" y2="15.209" gradientUnits="userSpaceOnUse">
<stop stop-color="#F1F011"/>
<stop offset="1" stop-color="#F9D311"/>
</linearGradient>
<linearGradient id="paint1_linear_122_5" x1="22.6097" y1="18.6863" x2="26.2244" y2="18.6863" gradientUnits="userSpaceOnUse">
<stop stop-color="#F1F011"/>
<stop offset="1" stop-color="#F9D311"/>
</linearGradient>
<linearGradient id="paint2_linear_122_5" x1="34.809" y1="32.2226" x2="37.5526" y2="32.2226" gradientUnits="userSpaceOnUse">
<stop stop-color="#F1F011"/>
<stop offset="1" stop-color="#F9D311"/>
</linearGradient>
<linearGradient id="paint3_linear_122_5" x1="11.5755" y1="32.7674" x2="14.543" y2="32.7674" gradientUnits="userSpaceOnUse">
<stop stop-color="#F1F011"/>
<stop offset="1" stop-color="#F9D311"/>
</linearGradient>
<linearGradient id="paint4_linear_122_5" x1="21.3876" y1="43.5992" x2="26.6709" y2="43.5992" gradientUnits="userSpaceOnUse">
<stop stop-color="#F1F011"/>
<stop offset="1" stop-color="#F9D311"/>
</linearGradient>
</defs>
</svg>
