<svg width="50" height="50" viewBox="0 0 50 50" fill="none" xmlns="http://www.w3.org/2000/svg">
<path d="M30.1133 0H30.3565C30.752 0.0917969 31.1231 0.37793 31.21 0.790039C31.292 1.27246 31.2491 1.76563 31.3057 2.25C31.5049 4.69922 32.4874 7.01465 33.7725 9.08301C35.9502 12.4854 38.6709 15.5283 40.5821 19.1025C41.4297 20.5859 42.0958 22.1709 42.6055 23.8008C43.379 26.2715 43.7051 28.8633 43.7452 31.4463C43.6954 35.501 42.3028 39.5312 39.7979 42.7246C37.5723 45.6045 34.4893 47.8135 31.042 48.9834C29.2139 49.6152 27.2833 49.9365 25.3516 50H24.6504C20.2549 49.8975 15.8995 48.2314 12.6182 45.293C9.26958 42.3652 7.01861 38.2021 6.44244 33.7881C6.14458 32.0107 6.26275 30.2021 6.37896 28.4141C6.59478 26.1104 7.05279 23.8027 8.00494 21.6826C8.78228 19.9258 9.91411 18.2832 11.4747 17.1357C11.8067 16.9043 12.169 16.624 12.6006 16.6777C13.0489 16.7139 13.4346 17.0713 13.5186 17.5117C13.8731 19.3184 14.4629 21.124 15.542 22.6357C16.3126 23.7236 17.4317 24.6025 18.752 24.8916C18.793 21.9893 18.9073 19.0742 19.4258 16.2129C19.8389 13.8047 20.627 11.4551 21.8135 9.31543C22.2442 8.41113 22.8145 7.58691 23.3438 6.74023C23.6875 6.21289 24.0928 5.72852 24.462 5.21973C24.92 4.5791 25.4766 4.01953 25.9883 3.42285C26.4209 2.91504 26.9307 2.48242 27.4063 2.01758C28.0518 1.38281 28.7608 0.817383 29.4883 0.280273C29.6719 0.141602 29.8858 0.0439453 30.1133 0ZM22.3047 13.3291C20.9376 17.3906 20.8751 21.7285 20.8321 25.9697C20.8624 26.5371 20.3897 27.0732 19.8145 27.0723C18.8428 27.0879 17.8672 26.8867 16.9805 26.4883C15.3204 25.7471 14.0274 24.3438 13.1709 22.7627C12.5801 21.7812 12.1827 20.6992 11.8467 19.6074C11.1797 20.2197 10.7159 21.0176 10.2745 21.7998C9.04204 24.2002 8.53033 26.9062 8.4024 29.583C8.12701 32.7773 8.70611 36.0645 10.2129 38.9062C11.9581 42.2988 14.9161 45.0361 18.4141 46.5508C17.8292 45.7324 17.3555 44.8291 17.0635 43.8643C16.5137 42.1035 16.5997 40.208 16.9493 38.417C17.2735 37.0332 17.8614 35.623 18.9913 34.7051C19.2999 34.4424 19.7178 34.2471 20.127 34.374C20.4922 34.4678 20.7891 34.7803 20.8633 35.1504C21.0381 35.9678 21.2745 36.8154 21.8311 37.4619C21.9131 36.166 21.9834 34.8584 22.3213 33.5977C22.92 31.3896 24.1895 29.373 25.877 27.832C26.2422 27.5488 26.5665 27.1348 27.0596 27.0928C27.6417 27.0273 28.1866 27.5361 28.1827 28.1162C28.2002 28.9512 28.379 29.7822 28.7354 30.5391C29.5674 32.2412 30.8438 33.6709 31.7608 35.3232C32.7002 36.9697 33.2149 38.8398 33.3096 40.7305C33.4512 42.7959 32.8038 44.8828 31.586 46.5498C33.9815 45.5059 36.1368 43.9062 37.8018 41.8916C40.2188 39.0186 41.6045 35.3018 41.6553 31.5469C41.6407 28.959 41.2862 26.3594 40.4561 23.9023C40.1485 22.9287 39.7012 22.0107 39.2803 21.083C37.5674 17.5879 35.0235 14.6094 32.8174 11.4277C31.8184 9.95605 30.8985 8.41406 30.2598 6.74902C29.7784 5.58008 29.504 4.3418 29.2959 3.09863C26.1905 5.87988 23.7266 9.40332 22.3047 13.3291ZM24.8702 32.6816C24.0899 34.2959 23.962 36.123 23.9092 37.8877C23.8838 38.3408 23.9444 38.8008 23.8506 39.248C23.754 39.7012 23.3067 40.0254 22.8516 40.0244C22.0538 40.0361 21.2549 39.7471 20.6524 39.2236C20.1036 38.7852 19.7559 38.1689 19.4034 37.5762C18.8633 38.8408 18.7315 40.2402 18.7647 41.6025C18.8477 43.6113 19.8516 45.582 21.4932 46.7598C22.5 47.499 23.7442 47.9141 24.9942 47.9102C26.2227 47.916 27.4463 47.5195 28.4444 46.8047C29.8067 45.8506 30.752 44.3486 31.0918 42.7266C31.42 41.1465 31.1641 39.4951 30.6661 37.9785C29.7334 35.1484 27.2588 33.1387 26.4112 30.2686C25.8018 31.0059 25.2598 31.8057 24.8702 32.6816Z" fill="url(#paint0_linear_120_7)"/>
<defs>
<linearGradient id="paint0_linear_120_7" x1="14.2303" y1="20.026" x2="30.0881" y2="20.026" gradientUnits="userSpaceOnUse">
<stop stop-color="#F1F011"/>
<stop offset="1" stop-color="#F9D311"/>
</linearGradient>
</defs>
</svg>
