<svg width="50" height="50" viewBox="0 0 50 50" fill="none" xmlns="http://www.w3.org/2000/svg">
<path d="M24.3535 0H25.6406C29.2998 0.106445 32.9404 0.99707 36.2061 2.65918C41.2891 5.2041 45.4453 9.53809 47.7852 14.7178C49.1523 17.7119 49.8799 20.9824 50 24.2686V25.6406C49.8809 29.6855 48.7969 33.7041 46.7949 37.2256C45.1543 40.1406 42.9238 42.7236 40.2773 44.7705C37.3223 47.0635 33.8477 48.6885 30.1855 49.458C28.6924 49.7822 27.168 49.9375 25.6436 50H24.3604C20.3643 49.8809 16.3936 48.8223 12.9004 46.8691C10.4004 45.4727 8.13574 43.6543 6.24414 41.5039C3.58496 38.4912 1.66016 34.8311 0.709961 30.9248C0.283203 29.1973 0.0644531 27.4228 0 25.6455V24.2695C0.129883 20.5215 1.06934 16.793 2.8252 13.4727C5.13965 9.01367 8.84082 5.28516 13.2773 2.92773C16.6729 1.09961 20.502 0.114258 24.3535 0ZM22.9961 2.32129C17.9268 2.75195 13.0381 4.96582 9.35645 8.47559C6.73145 10.9531 4.70703 14.0635 3.51172 17.4707C2.33984 20.8066 1.96191 24.4199 2.42188 27.9258C2.8916 31.6309 4.30762 35.208 6.48926 38.2383C9.64355 42.6611 14.4238 45.8984 19.7148 47.1436C24.127 48.209 28.8594 47.9033 33.0977 46.2783C36.542 44.9678 39.6523 42.7979 42.084 40.0303C44.5801 37.2041 46.3613 33.75 47.1953 30.0713C48.2266 25.6016 47.8584 20.8193 46.1445 16.5635C44.0098 11.1826 39.7373 6.69434 34.4688 4.29688C30.9053 2.65039 26.9053 1.96973 22.9961 2.32129Z" fill="url(#paint0_linear_120_56)"/>
<path d="M32.6308 11.8311C33.2109 11.6817 33.8506 12.0889 33.9658 12.6749C34.0508 13.0108 33.9375 13.3545 33.7471 13.6319C28.5254 21.6309 23.3105 29.6358 18.0889 37.6358C17.7851 38.1768 17.0137 38.3682 16.5049 38.004C15.9873 37.6797 15.8555 36.9219 16.2148 36.4327C21.4433 28.4102 26.6777 20.3907 31.9062 12.3682C32.0693 12.1065 32.3242 11.8956 32.6308 11.8311Z" fill="url(#paint1_linear_120_56)"/>
<path d="M17.8174 13.6367C19.0039 13.3681 20.295 13.584 21.3184 14.2451C22.5235 15.0058 23.335 16.3515 23.4356 17.7744C23.5342 18.9629 23.1465 20.1826 22.377 21.0947C21.583 22.0507 20.3887 22.667 19.1455 22.7382C17.6807 22.8466 16.1905 22.1963 15.2686 21.0537C14.3418 19.9433 14.002 18.3828 14.3702 16.9853C14.7744 15.3398 16.1641 13.997 17.8174 13.6367ZM18.4024 15.791C17.6485 15.9267 16.9795 16.4502 16.667 17.1484C16.3233 17.8867 16.3975 18.7998 16.8594 19.4707C17.3311 20.1767 18.1983 20.5986 19.0459 20.5117C20.0215 20.4423 20.8975 19.705 21.1407 18.7597C21.3623 17.9609 21.1289 17.0566 20.543 16.4697C20.001 15.9052 19.1709 15.6435 18.4024 15.791Z" fill="url(#paint2_linear_120_56)"/>
<path d="M30.1172 27.5937C31.2803 27.3955 32.5176 27.6592 33.4883 28.334C34.5576 29.0625 35.2978 30.2578 35.456 31.5449C35.6338 32.8486 35.2148 34.2178 34.3379 35.1992C33.4951 36.1621 32.2383 36.7412 30.959 36.7549C29.5293 36.789 28.1084 36.1045 27.2393 34.9697C26.3701 33.8721 26.0615 32.3662 26.4102 31.0127C26.8291 29.2715 28.3506 27.875 30.1172 27.5937ZM30.3809 29.8096C29.2109 30.0371 28.3447 31.2383 28.5137 32.4209C28.6299 33.7187 29.9551 34.7344 31.2392 34.5C32.4951 34.3437 33.4521 33.0596 33.2451 31.8115C33.0937 30.4814 31.6836 29.4912 30.3809 29.8096Z" fill="url(#paint3_linear_120_56)"/>
<defs>
<linearGradient id="paint0_linear_120_56" x1="10.6367" y1="20.026" x2="31.7859" y2="20.026" gradientUnits="userSpaceOnUse">
<stop stop-color="#F1F011"/>
<stop offset="1" stop-color="#F9D311"/>
</linearGradient>
<linearGradient id="paint1_linear_120_56" x1="19.8376" y1="22.3702" x2="27.4438" y2="22.3702" gradientUnits="userSpaceOnUse">
<stop stop-color="#F1F011"/>
<stop offset="1" stop-color="#F9D311"/>
</linearGradient>
<linearGradient id="paint2_linear_120_56" x1="16.1871" y1="17.2193" x2="20.0897" y2="17.2193" gradientUnits="userSpaceOnUse">
<stop stop-color="#F1F011"/>
<stop offset="1" stop-color="#F9D311"/>
</linearGradient>
<linearGradient id="paint3_linear_120_56" x1="28.2324" y1="31.2249" x2="32.1351" y2="31.2249" gradientUnits="userSpaceOnUse">
<stop stop-color="#F1F011"/>
<stop offset="1" stop-color="#F9D311"/>
</linearGradient>
</defs>
</svg>
